<mxfile host="app.diagrams.net" modified="2023-05-11T09:06:57.017Z" agent="Mozilla/5.0 (Windows NT 10.0; Win64; x64) AppleWebKit/537.36 (KHTML, like Gecko) Chrome/113.0.0.0 Safari/537.36" etag="_mADIBebpZf1bOPhhZoB" version="21.2.9" type="github">
  <diagram name="第 1 页" id="LbV2Ouu0MSUz2O4njj0f">
    <mxGraphModel dx="1050" dy="517" grid="1" gridSize="10" guides="1" tooltips="1" connect="1" arrows="1" fold="1" page="1" pageScale="1" pageWidth="827" pageHeight="1169" math="0" shadow="0">
      <root>
        <mxCell id="0" />
        <mxCell id="1" parent="0" />
        <mxCell id="asuClRF9nyO96nMHcw2N-1" value="MySQL" style="rounded=1;whiteSpace=wrap;html=1;strokeColor=none;fillColor=#ece7f9;glass=0;shadow=0;" parent="1" vertex="1">
          <mxGeometry x="210" y="440" width="390" height="60" as="geometry" />
        </mxCell>
        <mxCell id="asuClRF9nyO96nMHcw2N-2" value="数据库" style="rounded=1;whiteSpace=wrap;html=1;fillColor=#6f81db;strokeColor=none;fontColor=#FFFFFF;glass=0;shadow=0;" parent="1" vertex="1">
          <mxGeometry x="100" y="440" width="100" height="60" as="geometry" />
        </mxCell>
        <mxCell id="asuClRF9nyO96nMHcw2N-3" value="业务逻辑层 BLL" style="rounded=1;whiteSpace=wrap;html=1;strokeColor=none;fillColor=#e6f4fc;glass=0;shadow=0;" parent="1" vertex="1">
          <mxGeometry x="210" y="300" width="390" height="60" as="geometry" />
        </mxCell>
        <mxCell id="asuClRF9nyO96nMHcw2N-4" value="服务端" style="rounded=1;whiteSpace=wrap;html=1;fillColor=#69b1e4;strokeColor=none;fontColor=#FFFFFF;glass=0;shadow=0;arcSize=8;" parent="1" vertex="1">
          <mxGeometry x="100" y="230" width="100" height="200" as="geometry" />
        </mxCell>
        <mxCell id="asuClRF9nyO96nMHcw2N-7" value="前端" style="rounded=1;whiteSpace=wrap;html=1;strokeColor=none;fillColor=#e2f3f3;glass=0;shadow=0;" parent="1" vertex="1">
          <mxGeometry x="210" y="160" width="390" height="60" as="geometry" />
        </mxCell>
        <mxCell id="asuClRF9nyO96nMHcw2N-8" value="前端" style="rounded=1;whiteSpace=wrap;html=1;fillColor=#6ec4c4;strokeColor=none;fontColor=#FFFFFF;glass=0;shadow=0;" parent="1" vertex="1">
          <mxGeometry x="100" y="160" width="100" height="60" as="geometry" />
        </mxCell>
        <mxCell id="LptzROLRFqymjn0Ic_5p-1" value="表示层 UI" style="rounded=1;whiteSpace=wrap;html=1;strokeColor=none;fillColor=#e6f4fc;glass=0;shadow=0;" vertex="1" parent="1">
          <mxGeometry x="210" y="230" width="390" height="60" as="geometry" />
        </mxCell>
        <mxCell id="LptzROLRFqymjn0Ic_5p-2" value="数据访问层 DAL" style="rounded=1;whiteSpace=wrap;html=1;strokeColor=none;fillColor=#e6f4fc;glass=0;shadow=0;" vertex="1" parent="1">
          <mxGeometry x="210" y="370" width="390" height="60" as="geometry" />
        </mxCell>
      </root>
    </mxGraphModel>
  </diagram>
</mxfile>
